<svg width="24" height="24" viewBox="0 0 24 24" fill="none" xmlns="http://www.w3.org/2000/svg">
<g clip-path="url(#clip0_61385_138)">
<path d="M10.724 23.9999C9.617 23.9999 8.324 23.9939 7.048 23.9209C5.18106 23.9629 3.3729 23.2669 2.016 21.9839C0.732801 20.6275 0.0367146 18.8196 0.079 16.9529C0 15.5099 0 14.0509 0 12.6399C0 12.4265 0 12.2132 0 11.9999C0 11.7865 0 11.5732 0 11.3599C0 9.94888 0 8.48988 0.079 7.04788C0.0369932 5.18094 0.733022 3.37278 2.016 2.01588C3.3729 0.7329 5.18106 0.0368711 7.048 0.0788779C8.328 0.00587794 9.617 -0.00012207 10.724 -0.00012207H13.277C14.384 -0.00012207 15.677 0.00587794 16.954 0.0788779C18.8207 0.0365925 20.6286 0.732679 21.985 2.01588C23.268 3.37278 23.964 5.18094 23.922 7.04788C24 8.48988 24 9.94888 24 11.3609C24 11.5742 24 11.7875 24 12.0009C24 12.2142 24 12.4272 24 12.6399C24 14.0509 24 15.5099 23.921 16.9539C23.9633 18.8206 23.2672 20.6285 21.984 21.9849C20.6276 23.2681 18.8197 23.9642 16.953 23.9219C15.672 23.9949 14.383 24.0009 13.276 24.0009L10.724 23.9999Z" fill="white"/>
<path d="M17.6061 6.7885C17.8425 6.94651 18.1206 7.03085 18.405 7.03085L18.406 7.03185C18.7873 7.03132 19.1528 6.87948 19.4222 6.60967C19.6916 6.33986 19.843 5.97415 19.843 5.59285C19.843 5.30844 19.7586 5.03042 19.6006 4.79394C19.4426 4.55746 19.218 4.37315 18.9553 4.26431C18.6925 4.15547 18.4034 4.12699 18.1244 4.18248C17.8455 4.23796 17.5893 4.37492 17.3882 4.57603C17.1871 4.77714 17.0501 5.03336 16.9946 5.31231C16.9391 5.59125 16.9676 5.88039 17.0764 6.14315C17.1853 6.40591 17.3696 6.63049 17.6061 6.7885Z" fill="#323238"/>
<path fill-rule="evenodd" clip-rule="evenodd" d="M12.0003 18.1556C10.7828 18.1554 9.59268 17.7942 8.58046 17.1176C7.56824 16.4411 6.77937 15.4796 6.31359 14.3547C5.84781 13.2298 5.72604 11.9921 5.96369 10.798C6.20133 9.6039 6.78771 8.5071 7.64868 7.64627C8.50966 6.78543 9.60655 6.19923 10.8007 5.96178C11.9948 5.72433 13.2325 5.8463 14.3573 6.31226C15.4821 6.77823 16.4435 7.56726 17.1199 8.57958C17.7963 9.59191 18.1573 10.7821 18.1573 11.9996C18.1557 13.632 17.5065 15.1972 16.3522 16.3515C15.1979 17.5058 13.6327 18.154 12.0003 18.1556ZM12.0002 8.00009C11.2091 8.00009 10.4357 8.23469 9.77794 8.67421C9.12015 9.11374 8.60746 9.73845 8.3047 10.4694C8.00195 11.2003 7.92274 12.0045 8.07708 12.7805C8.23142 13.5564 8.61239 14.2691 9.1718 14.8285C9.73121 15.3879 10.4439 15.7689 11.2199 15.9232C11.9958 16.0776 12.8001 15.9984 13.531 15.6956C14.2619 15.3929 14.8866 14.8802 15.3261 14.2224C15.7656 13.5646 16.0002 12.7912 16.0002 12.0001C16.0002 10.9392 15.5788 9.92181 14.8286 9.17166C14.0785 8.42152 13.0611 8.00009 12.0002 8.00009Z" fill="#323238"/>
</g>
<defs>
<clipPath id="clip0_61385_138">
<rect width="24" height="24" fill="white"/>
</clipPath>
</defs>
</svg>
