<svg width="25" height="20" viewBox="0 0 25 20" fill="none" xmlns="http://www.w3.org/2000/svg">
<g clip-path="url(#clip0_61385_127)">
<path d="M24.6849 2.84541C23.7604 3.23596 22.7804 3.49357 21.777 3.60987C22.8352 3.00438 23.6271 2.05175 24.0049 0.92954C23.0116 1.49659 21.9235 1.89567 20.7883 2.10926C20.0949 1.39776 19.1931 0.90254 18.2008 0.688222C17.2085 0.473904 16.1716 0.550437 15.2254 0.907836C14.2793 1.26523 13.4678 1.8869 12.8969 2.69173C12.3259 3.49657 12.022 4.44719 12.0249 5.41957C12.0229 5.79167 12.0668 6.16269 12.1557 6.52497C10.1397 6.42949 8.16745 5.92865 6.36772 5.05515C4.56799 4.18165 2.98127 2.95513 1.71118 1.4557C1.06318 2.52318 0.865344 3.78662 1.15797 4.98866C1.45059 6.19069 2.21165 7.24088 3.28613 7.9253C2.47862 7.90622 1.6883 7.69843 0.984181 7.3201V7.38027C0.983648 8.49958 1.38859 9.58454 2.13021 10.4508C2.87183 11.3171 3.90437 11.9112 5.05239 12.1322C4.61745 12.2449 4.16878 12.3021 3.71813 12.3021C3.39857 12.3027 3.07977 12.2726 2.76649 12.2124C3.09011 13.1751 3.72051 14.017 4.56948 14.6202C5.41844 15.2235 6.4435 15.5581 7.50121 15.577C5.7066 16.9253 3.48902 17.6563 1.20635 17.6521C0.802482 17.6517 0.398991 17.6284 -0.00201416 17.5825C2.30457 19.0171 4.99862 19.778 7.75054 19.7721C9.64884 19.7848 11.5308 19.4367 13.2872 18.7481C15.0435 18.0595 16.6391 17.0441 17.9812 15.7609C19.3233 14.4776 20.3851 12.9522 21.105 11.2733C21.8248 9.59443 22.1884 7.7955 22.1744 5.98112C22.1744 5.77113 22.1744 5.56114 22.1584 5.35586C23.1498 4.66909 24.0054 3.81899 24.6849 2.84541V2.84541Z" fill="white"/>
</g>
<defs>
<clipPath id="clip0_61385_127">
<rect width="24.6857" height="19.2" fill="white" transform="translate(0 0.571167)"/>
</clipPath>
</defs>
</svg>
