<svg width="25" height="20" viewBox="0 0 25 20" fill="none" xmlns="http://www.w3.org/2000/svg">
<g clip-path="url(#clip0_61385_134)">
<path d="M24.5252 4.81082C24.5697 3.78244 24.219 2.77775 23.5499 2.01719C22.8808 1.25664 21.9481 0.802342 20.9563 0.753989C18.285 0.624185 15.5607 0.571167 12.7783 0.571167H11.9108C9.13364 0.571167 6.40411 0.621443 3.73276 0.753989C2.74078 0.805615 1.8089 1.26246 1.14092 2.02459C0.472944 2.78672 0.123248 3.79212 0.168319 4.82087C0.0484172 6.6043 -0.00536239 8.38042 -7.25919e-05 10.1611C0.0052172 11.9418 0.0484172 13.7207 0.163911 15.5059C0.116891 16.5362 0.465468 17.5439 1.13334 18.3083C1.80122 19.0727 2.73398 19.5317 3.72747 19.5847C6.53371 19.72 9.41312 19.7794 12.3401 19.7748C15.2719 19.7846 18.1428 19.7212 20.9528 19.5847C21.9464 19.5326 22.8796 19.0746 23.5482 18.3109C24.2169 17.5472 24.5666 16.5399 24.5208 15.5096C24.6363 13.7243 24.6892 11.9445 24.6848 10.1602C24.6942 8.37707 24.641 6.59394 24.5252 4.81082ZM9.97825 15.0653V5.24136L16.9705 10.1511L9.97825 15.0653Z" fill="white"/>
</g>
<defs>
<clipPath id="clip0_61385_134">
<rect width="24.6857" height="19.2" fill="white" transform="translate(0 0.571167)"/>
</clipPath>
</defs>
</svg>
